<svg width="1440" height="666" viewBox="0 0 1440 666" fill="none" xmlns="http://www.w3.org/2000/svg">
<path d="M1002.64 78.4206C1101 96.5688 1203.68 105.227 1304.38 94.5708C1350.46 89.8256 1395.9 80.7516 1440 66.7658L1440 0.000290459L680.649 0.000224075C784.95 27.6388 888.35 56.6926 993.461 76.7556C996.521 77.3383 999.58 77.8378 1002.64 78.4206Z" fill="#1D2530"/>
<path d="M0.131359 666L1440 666L1440 66.7736C1395.9 80.7594 1350.46 89.9168 1304.38 94.662C1203.68 105.235 1101 96.6599 1002.64 78.5117C999.58 77.9289 996.52 77.3462 993.461 76.8467C888.35 56.8669 784.95 27.7297 680.649 0.0910454L0.131417 0.0909859L0.131359 666Z" fill="#1C232E"/>
<path d="M1009.48 182.323C1006.6 181.657 1003.72 180.908 1000.93 180.242C824.366 136.536 651.132 69.1046 466.829 33.2243C310.063 2.75517 152.308 8.91553 0.131414 41.7156L0.131359 666L1440 666L1440 187.401C1392.93 202.053 1344.16 210.461 1295.02 213.125C1198.46 218.62 1101.9 204.634 1009.48 182.323Z" fill="#1A212B"/>
<path d="M1440 666L1440 308.529C1389.96 323.847 1337.86 331.256 1285.75 331.589C1193.24 332.255 1102.89 312.691 1016.41 286.218C1013.71 285.386 1011.1 284.553 1008.4 283.721C843.175 232.106 679.3 162.094 502.286 123.799C334.271 87.4194 163.647 95.1615 0.221852 134.289L0.221806 666L1440 666Z" fill="#191F29"/>
<path d="M1276.39 450.052C1188.02 445.057 1103.7 420.748 1023.25 390.03C1020.73 389.114 1018.3 388.115 1015.78 387.199C861.893 327.593 707.377 255.249 537.652 214.291C358.749 171.168 174.625 180.325 0.131398 226.612L0.131359 666L1440 666L1440 430.239C1386.9 446.556 1331.47 453.132 1276.39 450.052Z" fill="#171D26"/>
<path d="M0.131454 666L1440 666L1440 552.532C1383.94 569.931 1325.08 575.425 1267.04 568.515C1182.8 558.442 1104.6 528.806 1030.09 493.924C1027.75 492.842 1025.5 491.76 1023.16 490.678C880.611 423.163 735.454 348.405 572.929 304.866C383.496 254.084 185.245 264.074 0.041515 318.685L0.0414847 666L0.131454 666Z" fill="#151B23"/>
<path d="M1030.64 594.156C899.431 518.649 763.634 441.81 608.398 395.441C420.675 339.331 220.263 344.825 34.3393 399.853C22.8204 403.266 11.4814 406.846 0.0524229 410.592L0.0524006 666L1180.75 666C1130.35 648.268 1082.92 623.876 1037.03 597.736C1034.87 596.57 1032.8 595.322 1030.64 594.156Z" fill="#141920"/>
<path d="M0.0895531 666L991.799 666C885.519 594.572 772.669 529.055 643.711 486.015C471.107 428.407 283.744 423.828 108.26 468.45C71.543 477.774 35.2764 489.428 -0.000402496 503.165L-0.000416731 666L0.0895531 666Z" fill="#12171D"/>
<path d="M182.4 537.13C139.924 545.955 98.1676 558.192 57.6712 573.593C38.143 581.003 18.9747 589.244 0.166363 598.152L0.166357 666L861.029 666C804.424 631.285 744.31 600.899 679.155 576.59C521.76 517.733 347.355 502.749 182.4 537.13Z" fill="#10141A"/>
<path d="M256.354 605.728C188.59 616.217 122.356 636.613 61.2516 666L711.892 666C569.975 606.893 409.88 581.918 256.354 605.728Z" fill="#0E1217"/>
</svg>
